<?xml version="1.0" standalone="no"?>
<!DOCTYPE svg PUBLIC "-//W3C//DTD SVG 20010904//EN"
 "http://www.w3.org/TR/2001/REC-SVG-20010904/DTD/svg10.dtd">
<svg version="1.0" xmlns="http://www.w3.org/2000/svg"
 width="4096.000000pt" height="4096.000000pt" viewBox="0 0 2048.000000 2048.000000"
 preserveAspectRatio="xMidYMid meet">

<g transform="translate(0.000000,2048.000000) scale(0.100000,-0.100000)"
fill="#000000" stroke="none">
<path d="M12797 14722 c-34 -32 -77 -69 -95 -84 -17 -15 -32 -30 -32 -34 0 -4
-17 -30 -39 -58 -48 -63 -64 -111 -55 -165 7 -43 41 -86 78 -96 55 -16 96 -39
96 -56 0 -17 -18 -25 -95 -45 -37 -9 -34 -8 -68 -22 -16 -7 -32 -12 -37 -12
-18 0 -19 -19 -4 -66 16 -50 54 -94 80 -94 8 0 46 7 84 16 57 13 78 24 127 66
170 149 177 255 18 289 -33 6 -66 18 -74 25 -22 20 -6 60 33 78 20 9 38 21 41
26 3 6 13 10 21 10 20 0 41 22 54 55 13 34 4 149 -15 185 -25 48 -48 44 -118
-18z"/>
<path d="M9670 14411 c-91 -49 -128 -187 -77 -291 29 -59 71 -83 127 -74 61
10 101 49 110 107 13 87 -33 147 -111 147 -26 0 -51 5 -54 11 -9 14 34 59 56
59 22 0 43 26 35 45 -7 20 -43 18 -86 -4z m74 -187 c18 -18 21 -76 6 -105 -18
-32 -67 -25 -90 14 -25 41 -25 62 0 87 24 24 63 26 84 4z" fill="#e63946"/>
<path d="M9320 14382 c-42 -21 -92 -104 -73 -123 17 -17 48 -2 68 36 23 42 52
51 85 26 48 -35 42 -55 -70 -211 -40 -57 -50 -97 -26 -106 21 -8 206 14 222
27 18 15 18 45 0 52 -8 3 -35 -1 -60 -8 -49 -15 -76 -11 -76 10 0 7 25 46 55
88 60 82 67 114 39 168 -16 31 -66 59 -106 59 -13 0 -39 -8 -58 -18z" fill="#e63946"/>
<path d="M9015 14326 c-91 -49 -128 -187 -77 -291 29 -59 71 -83 127 -74 61
10 101 49 110 107 13 87 -33 147 -111 147 -26 0 -51 5 -54 11 -9 14 34 59 56
59 22 0 43 26 35 45 -7 20 -43 18 -86 -4z m74 -187 c18 -18 21 -76 6 -105 -18
-32 -67 -25 -90 14 -25 41 -25 62 0 87 24 24 63 26 84 4z" fill="#e63946"/>
<path d="M8693 14250 c-47 -21 -83 -69 -83 -111 0 -15 6 -29 14 -32 19 -8 56
20 56 43 0 21 36 50 62 50 27 0 51 -45 44 -82 -3 -18 -28 -71 -56 -118 -74
-126 -64 -163 34 -130 28 10 77 25 108 34 65 19 77 31 54 54 -14 14 -20 15
-49 3 -92 -38 -116 -19 -70 56 15 27 34 58 41 70 31 57 -1 143 -63 169 -42 17
-40 17 -92 -6z" fill="#e63946"/>
<path d="M8180 14075 c-14 -8 -62 -28 -107 -45 -85 -32 -107 -56 -83 -85 16
-19 34 -19 50 0 30 36 77 9 95 -55 4 -14 13 -38 21 -55 7 -16 23 -56 34 -87
16 -44 27 -59 45 -64 13 -3 29 -3 34 1 13 8 14 57 2 71 -19 21 -101 219 -96
233 3 9 20 25 38 36 59 38 28 86 -33 50z" fill="#e63946"/>
<path d="M12995 13931 c-3 -5 -20 -13 -38 -16 -17 -4 -51 -16 -74 -26 -23 -11
-48 -19 -56 -19 -7 0 -17 -3 -21 -7 -7 -8 -63 -29 -116 -44 -73 -22 -138 -60
-148 -87 -25 -66 -37 -197 -37 -392 0 -198 11 -502 19 -547 3 -12 7 -48 11
-80 8 -79 15 -122 25 -163 4 -19 11 -57 15 -85 4 -27 11 -55 15 -60 5 -6 14
-42 20 -79 6 -38 17 -84 25 -103 8 -20 15 -43 15 -53 0 -25 78 -256 99 -294
96 -172 95 -170 102 -150 4 10 37 87 73 170 36 83 66 155 66 160 1 5 9 27 20
49 25 52 25 72 -4 137 -36 81 -66 183 -82 278 -7 47 -17 105 -21 130 -9 51 -9
494 0 617 11 149 55 373 98 503 15 47 31 104 35 128 6 38 5 42 -14 42 -12 0
-23 -4 -27 -9z"/>
<path d="M7803 13909 c-74 -37 -106 -124 -60 -166 43 -39 66 -45 144 -38 83 8
103 -1 103 -45 0 -49 -62 -76 -123 -52 -30 11 -40 12 -52 2 -22 -18 -19 -28
18 -50 59 -36 127 -21 195 43 37 36 44 90 14 127 -22 27 -89 41 -159 33 -39
-4 -59 -2 -78 11 -31 20 -32 36 -2 64 25 24 54 27 104 13 26 -7 37 -6 53 7 22
19 18 29 -22 55 -36 23 -84 22 -135 -4z" fill="#e63946"/>
<path d="M9855 13860 c-10 -11 -22 -20 -26 -20 -5 0 -50 -25 -101 -56 -119
-72 -140 -84 -155 -84 -7 0 -13 -4 -13 -9 0 -5 -13 -12 -29 -16 -16 -3 -46
-15 -67 -26 -21 -10 -44 -19 -51 -19 -20 0 -15 -45 7 -65 11 -10 20 -24 20
-32 0 -7 4 -13 9 -13 5 0 12 -11 15 -25 3 -13 27 -69 52 -122 25 -54 56 -120
69 -148 33 -71 85 -266 96 -360 12 -107 13 -389 1 -412 -5 -10 -15 -43 -21
-74 -10 -49 -19 -62 -71 -112 -66 -62 -91 -72 -225 -93 -49 -7 -101 -15 -115
-18 -14 -2 -47 -6 -75 -7 -27 -1 -90 -16 -140 -32 -49 -16 -96 -30 -103 -31
-7 -1 -18 -8 -24 -14 -7 -7 -17 -12 -24 -12 -12 0 -122 -70 -157 -100 -63 -54
-117 -108 -117 -118 0 -7 -3 -12 -8 -12 -17 0 -50 -108 -54 -175 -4 -79 11
-122 55 -160 23 -20 53 -38 67 -41 14 -3 59 -14 101 -25 41 -10 84 -19 95 -19
47 0 129 -33 161 -65 52 -52 47 -86 -24 -152 -31 -29 -60 -53 -65 -53 -5 0
-26 -11 -47 -24 -21 -14 -56 -28 -77 -32 -22 -4 -61 -16 -89 -26 -36 -14 -81
-21 -159 -23 -100 -3 -114 -1 -184 26 -72 27 -142 73 -170 111 -7 9 -19 24
-28 32 -20 20 -44 91 -44 130 0 20 12 48 31 74 36 49 85 67 154 56 71 -10 72
9 4 186 -17 47 -40 104 -50 127 -11 24 -19 46 -19 49 0 7 -37 91 -64 144 -9
18 -19 24 -37 23 -98 -8 -123 -13 -166 -34 -77 -37 -130 -77 -170 -127 -21
-26 -43 -51 -50 -57 -24 -20 -123 -224 -139 -286 -24 -92 -15 -278 18 -376 13
-39 29 -77 35 -85 6 -7 14 -24 18 -38 4 -14 16 -37 26 -52 11 -14 19 -30 19
-36 0 -14 93 -101 136 -128 159 -95 283 -126 509 -127 115 -1 156 3 230 22 50
13 101 29 115 36 246 117 294 148 390 256 125 138 190 274 190 394 -1 87 -31
153 -96 213 -32 29 -68 55 -81 58 -13 4 -23 10 -23 14 0 5 -22 14 -49 21 -76
19 -76 53 1 97 41 23 81 29 228 37 127 6 190 20 285 65 77 37 158 107 189 164
31 56 62 96 75 94 8 -2 31 -26 51 -55 44 -64 155 -169 195 -184 17 -6 46 -19
65 -29 87 -44 259 -54 363 -19 114 37 222 98 285 159 76 74 138 157 148 195 3
17 15 44 24 60 30 51 43 135 38 246 -5 114 -22 175 -88 314 -57 120 -189 256
-233 240 -7 -3 -26 -28 -40 -55 -15 -28 -34 -58 -42 -68 -29 -33 -86 -114 -97
-138 -6 -13 -15 -24 -19 -24 -4 0 -11 -9 -14 -20 -3 -11 -12 -26 -18 -33 -19
-20 -49 -78 -44 -84 44 -43 127 -144 145 -174 32 -56 30 -136 -3 -189 -37 -59
-91 -83 -187 -82 -130 0 -207 51 -278 186 -54 104 -68 198 -69 471 -1 178 -8
283 -27 425 -1 14 -7 77 -13 140 -5 63 -12 124 -14 135 -3 11 -8 45 -12 75 -3
30 -10 69 -15 85 -5 17 -12 48 -15 70 -6 45 -35 107 -51 112 -6 2 -19 -6 -29
-17z"/>
<path d="M8415 13821 c-13 -41 31 -74 60 -44 17 16 18 24 9 47 -9 23 -61 21
-69 -3z" fill="#e63946"/>
<path d="M7560 13774 c-19 -13 -59 -40 -87 -59 -29 -20 -53 -43 -53 -52 0 -9
15 -37 34 -63 18 -26 44 -69 57 -96 13 -27 38 -70 54 -97 36 -56 47 -56 134 1
31 20 65 42 76 48 11 6 20 22 20 35 0 37 -35 35 -86 -5 -24 -20 -52 -36 -62
-36 -15 0 -57 53 -57 72 0 4 25 26 55 49 55 42 68 70 34 77 -9 2 -34 -8 -54
-22 -46 -32 -79 -33 -99 -4 -24 34 -20 43 37 81 64 43 81 62 73 82 -8 21 -35
17 -76 -11z" fill="#e63946"/>
<path d="M11605 13004 c-112 -22 -136 -35 -217 -118 -37 -39 -70 -82 -73 -97
-4 -15 -12 -33 -20 -39 -8 -6 -17 -26 -20 -43 -4 -18 -17 -52 -28 -77 -24 -52
-33 -230 -17 -314 24 -119 102 -258 197 -347 104 -97 277 -158 462 -163 76 -1
96 -5 105 -19 15 -23 -12 -71 -76 -136 -61 -62 -138 -102 -254 -131 -76 -19
-105 -22 -199 -17 -60 4 -138 11 -173 18 -71 13 -95 8 -85 -18 4 -10 32 -61
64 -114 31 -53 76 -134 100 -180 24 -46 46 -86 50 -89 3 -3 14 -20 23 -37 9
-18 30 -49 47 -68 27 -31 37 -35 78 -35 100 1 241 46 331 108 64 43 200 172
200 189 0 6 4 13 8 15 13 5 72 95 72 109 0 7 7 20 16 30 16 18 19 27 49 148 9
36 20 72 25 81 5 10 12 46 15 81 4 35 11 93 16 129 5 36 7 155 5 265 -3 161
-8 215 -24 275 -49 181 -140 352 -234 437 -22 21 -48 45 -57 53 -49 47 -149
94 -221 104 -83 12 -105 12 -165 0z m246 -507 c47 -31 82 -88 113 -182 29 -90
31 -112 12 -137 -17 -23 -23 -22 -98 3 -95 32 -132 54 -177 106 -37 44 -41 53
-41 104 0 85 36 120 131 127 14 1 41 -8 60 -21z"/>
<path d="M10465 11545 c-5 -2 -44 -8 -85 -15 -95 -16 -181 -44 -230 -75 -35
-22 -38 -27 -30 -52 5 -15 30 -94 56 -175 26 -82 53 -153 60 -159 10 -8 25 -4
61 18 69 42 189 97 255 118 43 13 80 16 150 13 83 -4 101 -8 168 -42 41 -21
80 -42 87 -48 12 -9 27 16 53 87 4 11 17 45 29 75 11 31 21 66 21 80 0 30 -37
64 -96 86 -24 9 -44 20 -44 24 0 5 -19 11 -42 15 -24 4 -74 15 -113 26 -60 16
-268 33 -300 24z"/>
<path d="M11087 10853 c-19 -27 -47 -73 -62 -103 -27 -53 -28 -57 -17 -123 7
-37 12 -80 12 -95 0 -15 7 -47 16 -72 12 -33 18 -114 25 -305 l10 -260 -26
-22 c-37 -32 -131 -32 -187 -1 -59 33 -68 59 -68 191 0 62 -5 139 -10 170 -10
53 -54 137 -71 137 -11 0 -90 -107 -113 -152 -20 -40 -20 -39 19 -143 35 -92
44 -185 21 -208 -19 -19 -26 -19 -205 -17 -148 2 -193 17 -218 78 -14 34 -14
53 2 217 11 107 15 215 12 265 -10 160 -36 355 -51 392 -9 21 -16 49 -16 63 0
18 -5 25 -18 25 -18 0 -44 -37 -78 -110 -9 -19 -23 -43 -31 -52 -20 -22 -12
-118 17 -209 18 -56 20 -90 20 -360 l0 -299 -23 -5 c-34 -9 -746 2 -797 12
-135 26 -228 90 -250 173 -9 34 -9 61 -1 112 15 92 14 118 -4 118 -8 0 -23
-10 -33 -21 -9 -12 -25 -29 -34 -38 -10 -8 -18 -21 -18 -28 0 -7 -4 -13 -10
-13 -5 0 0 21 11 47 11 25 18 52 15 58 -2 6 -39 26 -83 44 -43 19 -92 40 -109
47 -33 14 -130 40 -204 54 -83 16 -203 11 -270 -10 -34 -11 -71 -20 -82 -20
-10 0 -35 -9 -56 -19 -38 -19 -42 -21 -64 -21 -7 0 -26 -12 -41 -26 l-29 -24
16 -58 c32 -123 82 -272 99 -300 6 -9 30 -2 95 31 193 96 227 110 310 122 103
15 149 7 251 -47 83 -44 90 -55 89 -139 0 -74 43 -153 112 -200 30 -21 82 -49
115 -61 59 -22 67 -23 513 -23 l453 0 45 48 c27 27 51 44 57 40 7 -4 26 -17
42 -29 83 -61 106 -66 264 -62 159 5 182 11 236 68 16 16 33 30 38 30 5 0 25
-14 45 -31 81 -72 188 -89 271 -44 25 14 54 39 63 55 21 38 44 38 89 1 19 -16
53 -40 74 -52 40 -24 42 -24 407 -27 422 -3 373 -17 408 111 34 127 46 117
-145 117 -157 0 -167 1 -203 24 -30 19 -42 37 -65 97 -16 40 -31 96 -34 124
-8 74 2 79 119 65 178 -22 255 -24 282 -7 26 18 99 160 94 186 -2 12 -19 18
-71 23 -38 3 -82 11 -98 17 -16 6 -62 13 -102 17 -73 6 -90 2 -168 -41 -42
-23 -107 -109 -147 -192 -35 -74 -37 -83 -37 -183 0 -58 -4 -111 -9 -119 -7
-10 -28 -12 -90 -9 -99 5 -171 34 -186 74 -7 17 -8 102 -4 238 5 168 3 230 -9
306 -9 52 -19 137 -22 189 -4 55 -15 115 -26 143 -10 27 -19 57 -19 68 0 36
-18 30 -53 -17z m-2219 -768 c-1 -49 -18 -63 -18 -16 0 29 8 61 16 61 2 0 3
-20 2 -45z"/>
<path d="M9483 10470 c-33 -13 -103 -87 -103 -108 0 -10 -7 -27 -15 -38 -21
-28 -18 -65 11 -98 l25 -28 132 1 c129 1 166 -6 153 -28 -5 -7 -57 -11 -152
-11 -80 0 -153 -4 -163 -9 -10 -6 -24 -29 -31 -52 -20 -59 -3 -69 119 -69 130
0 238 29 286 77 44 44 63 101 46 140 -20 49 -44 57 -191 63 -122 4 -135 7
-138 24 -5 27 15 36 79 36 66 0 81 13 83 68 l1 37 -60 2 c-33 1 -70 -2 -82 -7z"/>
<path d="M10720 9528 c-61 -79 -71 -79 -154 -4 -22 20 -45 36 -51 36 -11 0
-95 -99 -130 -152 l-17 -28 68 -71 c95 -97 98 -99 140 -53 19 21 34 43 34 49
0 7 9 20 20 30 19 17 21 16 67 -23 26 -22 59 -51 72 -65 13 -14 30 -23 38 -20
7 3 38 42 67 87 70 108 67 102 60 120 -6 15 -142 122 -168 132 -8 3 -27 -13
-46 -38z"/>
<path d="M8876 8935 c-9 -13 -16 -42 -16 -65 0 -35 3 -40 23 -40 23 0 67 25
67 38 0 4 -14 13 -32 20 -30 11 -31 13 -13 25 11 9 16 20 12 31 -9 23 -22 20
-41 -9z"/>
<path d="M10120 8809 c-7 -13 -10 -72 -9 -161 3 -129 1 -142 -17 -155 -19 -14
-60 -10 -77 6 -4 5 -11 75 -13 157 -3 82 -10 153 -15 158 -5 5 -15 4 -24 -4
-14 -12 -16 -35 -14 -158 3 -180 10 -172 -152 -172 -109 0 -120 2 -145 23 -20
18 -27 33 -28 63 -1 28 -6 40 -18 42 -19 4 -28 -18 -30 -71 -2 -44 12 -62 74
-93 40 -20 62 -24 142 -24 66 0 109 5 137 17 34 13 47 14 73 5 41 -15 91 -15
117 -1 15 8 30 7 57 -3 27 -11 48 -12 77 -6 54 12 72 12 125 -2 47 -12 91 -8
144 15 17 7 50 21 74 31 l42 17 29 -27 c71 -68 193 -50 222 32 15 43 -14 142
-42 142 -28 0 -35 -28 -15 -65 10 -18 16 -43 14 -56 -3 -23 -7 -24 -73 -24
-57 0 -69 3 -66 15 11 43 6 55 -33 67 -21 7 -52 23 -69 35 -18 13 -51 23 -83
26 -45 4 -54 2 -63 -17 -17 -30 -6 -41 39 -41 59 0 92 -16 88 -42 -6 -42 -193
-72 -234 -37 -8 7 -11 22 -7 40 4 21 1 30 -11 35 -22 8 -46 -13 -46 -42 0 -51
-101 -68 -120 -20 -4 11 -8 84 -9 160 -1 77 -4 143 -7 148 -9 14 -23 9 -34
-13z"/>
<path d="M8734 8784 c-126 -66 -132 -92 -39 -185 36 -35 65 -72 65 -82 0 -25
-40 -37 -119 -37 -82 0 -107 19 -96 69 6 27 4 31 -14 31 -14 0 -26 -13 -40
-45 -35 -79 -90 -72 -142 20 -20 36 -37 55 -49 55 -28 0 -31 -13 -9 -46 11
-17 19 -46 19 -73 0 -37 -5 -48 -37 -78 -21 -19 -49 -40 -63 -46 -35 -17 -33
-51 2 -55 33 -4 98 44 128 95 18 31 22 33 60 27 25 -4 57 -2 80 6 33 11 44 11
70 -2 22 -10 53 -14 103 -12 108 5 157 34 157 93 0 28 -9 46 -43 84 -24 26
-48 47 -54 47 -25 0 -25 60 1 60 21 1 118 65 134 88 14 21 13 22 -15 22 -17 0
-61 -16 -99 -36z"/>
<path d="M8885 8770 c-7 -11 -4 -267 3 -308 3 -17 10 -22 26 -20 20 3 21 7 21
168 0 161 0 165 -22 168 -11 2 -24 -2 -28 -8z"/>
<path d="M8494 8756 c-3 -9 -4 -22 -1 -30 3 -7 -4 -21 -15 -30 -28 -25 -10
-39 52 -43 61 -3 78 18 39 49 -13 11 -24 29 -24 41 0 27 -42 37 -51 13z"/>
<path d="M10777 8763 c-24 -23 12 -55 38 -33 12 10 13 16 4 26 -12 15 -31 18
-42 7z"/>
<path d="M10846 8754 c-7 -19 10 -35 34 -31 8 1 15 11 15 22 0 26 -40 33 -49
9z"/>
<path d="M10487 8737 c-3 -8 -2 -20 3 -27 11 -18 42 -4 38 17 -4 22 -34 29
-41 10z"/>
<path d="M11596 8741 c-9 -14 4 -41 19 -41 17 0 38 27 30 40 -8 12 -42 13 -49
1z"/>
<path d="M9784 8696 c-3 -14 -3 -34 1 -45 4 -14 -1 -30 -14 -47 -11 -15 -18
-30 -15 -35 9 -16 60 -10 77 9 21 23 21 41 1 63 -12 13 -13 22 -5 38 17 31 13
41 -14 41 -18 0 -26 -7 -31 -24z"/>
<path d="M12312 8647 c-34 -35 -42 -81 -20 -116 20 -33 3 -53 -44 -49 -41 3
-44 6 -73 60 -31 60 -51 76 -69 58 -8 -8 -6 -20 7 -41 27 -48 22 -98 -14 -139
-17 -19 -45 -42 -62 -50 -40 -19 -44 -54 -7 -58 34 -4 87 33 121 83 l27 40 84
-3 c66 -3 97 1 148 18 36 12 68 27 72 33 15 23 8 37 -17 37 -14 0 -25 -4 -25
-9 0 -36 -96 -5 -106 35 -12 47 3 72 49 85 23 6 48 13 54 15 7 2 10 10 7 19
-4 10 -20 15 -53 15 -40 0 -52 -5 -79 -33z"/>
<path d="M11620 8643 c-34 -7 -102 -56 -144 -104 -36 -43 -61 -47 -72 -12 -14
43 -29 63 -47 63 -17 0 -18 -5 -13 -37 21 -116 20 -129 -14 -163 -30 -30 -35
-32 -88 -28 -45 4 -60 10 -80 33 -21 25 -24 36 -19 77 5 38 3 50 -9 55 -30 11
-44 -17 -44 -86 0 -57 3 -71 23 -88 37 -35 63 -43 130 -43 74 0 105 18 137 80
24 47 35 51 107 40 93 -16 134 -12 188 16 28 14 56 33 63 42 17 22 15 83 -4
111 -14 19 -76 55 -86 50 -2 -1 -14 -4 -28 -6z m63 -74 c15 -23 1 -64 -25 -76
-13 -5 -48 -9 -78 -9 -48 1 -55 4 -55 21 0 11 11 25 24 31 13 7 26 16 30 21
22 33 86 40 104 12z"/>
<path d="M9034 8596 c-45 -45 -47 -95 -5 -137 17 -17 40 -29 55 -29 51 0 25
-45 -32 -56 -61 -12 -70 -64 -12 -64 40 0 93 36 124 84 21 32 26 52 26 104 0
59 -2 66 -34 98 -22 22 -44 34 -61 34 -17 0 -39 -12 -61 -34z m99 -52 c18 -24
18 -26 1 -45 -23 -25 -62 -21 -81 8 -13 19 -12 24 6 42 28 28 52 26 74 -5z"/>
<path d="M11840 8603 c-60 -54 -48 -163 18 -163 35 0 56 -14 50 -32 -6 -14
-35 -30 -83 -44 -41 -13 -42 -48 -1 -52 80 -9 166 86 166 186 0 56 -12 77 -60
107 -49 31 -53 31 -90 -2z m84 -55 c23 -32 20 -45 -14 -57 -26 -9 -34 -7 -51
10 -19 19 -18 28 4 57 15 19 44 14 61 -10z"/>
<path d="M9337 8483 c-17 -16 -6 -43 20 -49 32 -8 60 20 42 43 -12 14 -51 18
-62 6z"/>
<path d="M9473 8483 c-20 -7 -15 -41 6 -53 15 -7 23 -6 35 6 12 12 13 20 6 35
-11 19 -23 22 -47 12z"/>
<path d="M10296 8371 c-9 -14 4 -41 19 -41 15 0 28 27 19 41 -3 5 -11 9 -19 9
-8 0 -16 -4 -19 -9z"/>
</g>
</svg>

